<svg width="37" height="43" viewBox="0 0 37 43" fill="none" xmlns="http://www.w3.org/2000/svg">
<path d="M29.06 19.2065C29.06 19.2065 21.008 9.17969 19.424 8.93211C17.84 8.68454 2.792 22.7963 2.66 23.4153C2.55968 23.8832 2.528 37.8984 2.528 39.1363C2.528 40.3742 2.792 40.8693 4.244 40.9931C7.412 40.9931 10.316 40.9931 10.316 40.9931C10.316 40.9931 12.692 41.2407 12.428 38.7649C12.164 36.2892 10.976 25.7672 18.368 25.2721C25.76 24.7769 25.76 36.9081 25.76 36.9081C25.76 36.9081 25.232 40.6218 27.344 40.6218C29.456 40.6218 33.152 40.6218 33.152 40.6218C33.152 40.6218 35 40.1266 35 37.1557C35 34.1848 35 20.3206 35 19.5779C35 18.8351 35 17.3497 33.416 15.3691C31.832 13.3885 21.8 2 19.688 2C17.576 2 2 17.5972 2 17.5972" stroke="black" stroke-width="3" stroke-miterlimit="10" stroke-linecap="round"/>
</svg>
