<svg width="70" height="70" viewBox="0 0 70 70" fill="none" xmlns="http://www.w3.org/2000/svg">
<circle cx="35" cy="35" r="34.5" fill="black" stroke="black"/>
<path fill-rule="evenodd" clip-rule="evenodd" d="M19.5625 18.375C19.2476 18.375 18.9455 18.5001 18.7228 18.7228C18.5001 18.9455 18.375 19.2476 18.375 19.5625V26.6875C18.375 27.0024 18.2499 27.3045 18.0272 27.5272C17.8045 27.7499 17.5024 27.875 17.1875 27.875C16.8726 27.875 16.5705 27.7499 16.3478 27.5272C16.1251 27.3045 16 27.0024 16 26.6875V19.5625C16 18.6177 16.3753 17.7115 17.0434 17.0434C17.7115 16.3753 18.6177 16 19.5625 16H26.6875C27.0024 16 27.3045 16.1251 27.5272 16.3478C27.7499 16.5705 27.875 16.8726 27.875 17.1875C27.875 17.5024 27.7499 17.8045 27.5272 18.0272C27.3045 18.2499 27.0024 18.375 26.6875 18.375H19.5625ZM42.125 17.1875C42.125 16.8726 42.2501 16.5705 42.4728 16.3478C42.6955 16.1251 42.9976 16 43.3125 16H50.4375C51.3823 16 52.2885 16.3753 52.9566 17.0434C53.6247 17.7115 54 18.6177 54 19.5625V26.6875C54 27.0024 53.8749 27.3045 53.6522 27.5272C53.4295 27.7499 53.1274 27.875 52.8125 27.875C52.4976 27.875 52.1955 27.7499 51.9728 27.5272C51.7501 27.3045 51.625 27.0024 51.625 26.6875V19.5625C51.625 19.2476 51.4999 18.9455 51.2772 18.7228C51.0545 18.5001 50.7524 18.375 50.4375 18.375H43.3125C42.9976 18.375 42.6955 18.2499 42.4728 18.0272C42.2501 17.8045 42.125 17.5024 42.125 17.1875ZM17.1875 42.125C17.5024 42.125 17.8045 42.2501 18.0272 42.4728C18.2499 42.6955 18.375 42.9976 18.375 43.3125V50.4375C18.375 50.7524 18.5001 51.0545 18.7228 51.2772C18.9455 51.4999 19.2476 51.625 19.5625 51.625H26.6875C27.0024 51.625 27.3045 51.7501 27.5272 51.9728C27.7499 52.1955 27.875 52.4976 27.875 52.8125C27.875 53.1274 27.7499 53.4295 27.5272 53.6522C27.3045 53.8749 27.0024 54 26.6875 54H19.5625C18.6177 54 17.7115 53.6247 17.0434 52.9566C16.3753 52.2885 16 51.3823 16 50.4375V43.3125C16 42.9976 16.1251 42.6955 16.3478 42.4728C16.5705 42.2501 16.8726 42.125 17.1875 42.125ZM52.8125 42.125C53.1274 42.125 53.4295 42.2501 53.6522 42.4728C53.8749 42.6955 54 42.9976 54 43.3125V50.4375C54 51.3823 53.6247 52.2885 52.9566 52.9566C52.2885 53.6247 51.3823 54 50.4375 54H43.3125C42.9976 54 42.6955 53.8749 42.4728 53.6522C42.2501 53.4295 42.125 53.1274 42.125 52.8125C42.125 52.4976 42.2501 52.1955 42.4728 51.9728C42.6955 51.7501 42.9976 51.625 43.3125 51.625H50.4375C50.7524 51.625 51.0545 51.4999 51.2772 51.2772C51.4999 51.0545 51.625 50.7524 51.625 50.4375V43.3125C51.625 42.9976 51.7501 42.6955 51.9728 42.4728C52.1955 42.2501 52.4976 42.125 52.8125 42.125Z" fill="white"/>
</svg>
