<svg xmlns="http://www.w3.org/2000/svg" viewBox="-50 -50 500 500"><path d="M389.2 230.9l-88.7-88.7V83.8c0-7.3-5.9-13.2-13.2-13.2-7.3 0-13.2 5.9-13.2 13.2v32.1l-62.6-62.6c-5.1-5.2-13.5-5.2-18.6 0L15.3 230.9c-5.2 5.2-5.2 13.5 0 18.7 5.1 5.2 13.5 5.2 18.7 0L202.3 81.3l168.3 168.3c2.6 2.6 6 3.9 9.3 3.9 3.4 0 6.7-1.3 9.3-3.9 5.2-5.2 5.2-13.5 0-18.7z"/><path d="M351.5 246.1L211.6 106.2c-2.5-2.5-5.8-3.9-9.3-3.9-3.5 0-6.9 1.4-9.3 3.9L53.1 246.1c-1.9 1.8-3.1 4.2-3.6 6.8-.4 2-.6 4.1-.6 6v68.3c0 17.6 14.3 31.9 31.9 31.9H149c8.8 0 17.4-3.7 23.4-10.3 5.5-5.9 8.5-13.6 8.5-21.6v-50.1c0-12.2 9.3-22.3 21.4-23.5 12.1 1.1 21.4 11.3 21.4 23.5v50.1c0 8 3 15.7 8.5 21.6 6 6.5 14.6 10.3 23.4 10.3h68.3c17.6 0 31.9-14.3 31.9-31.9v-68.3c0-2-.2-4-.6-6-.6-2.6-1.9-5-3.7-6.8z"/></svg>