<svg data-name="Layer 1" xmlns="http://www.w3.org/2000/svg" viewBox="0 0 400 400"><path d="M112.5 170.3a39 39 0 10-39-39 39.1 39.1 0 0039 39zm49 26.5a51.9 51.9 0 01-10.3-17.2 51.9 51.9 0 00-17.7-3.1h-42A51.5 51.5 0 0040 228v35.7C60.3 272 85.4 277 112.5 277h2.1v-18.3a64.5 64.5 0 0146.9-61.9zm126-26.5a39 39 0 10-39-39 39.1 39.1 0 0039 39zm21 6.2h-42a51.9 51.9 0 00-17.7 3.1 51.9 51.9 0 01-10.3 17.2 64.5 64.5 0 0146.9 61.9v18.2h2.1c27.1 0 52.2-5 72.5-13.3V228a51.5 51.5 0 00-51.5-51.5zm-143.4 2.9a39.1 39.1 0 0017.2 17.4 37.4 37.4 0 009.2 3.3 40.6 40.6 0 0017 0 37.4 37.4 0 009.2-3.3 39.1 39.1 0 0017.2-17.4 33.5 33.5 0 003.2-9.2 36.8 36.8 0 00.9-8.2 39 39 0 00-78 0 36.8 36.8 0 00.9 8.2 33.5 33.5 0 003.2 9.2zm55.9 27.8h-42a51.6 51.6 0 00-51.5 51.5v35.8c20.3 8.3 45.4 13.2 72.5 13.2s52.2-4.9 72.5-13.2v-35.8a51.6 51.6 0 00-51.5-51.5z"/></svg>